<svg width="20" height="19" viewBox="0 0 20 19" fill="none" xmlns="http://www.w3.org/2000/svg">
<path d="M10.2037 5.23245C7.84357 5.23245 5.93985 7.13616 5.93985 9.49631C5.93985 11.8565 7.84357 13.7602 10.2037 13.7602C12.5639 13.7602 14.4676 11.8565 14.4676 9.49631C14.4676 7.13616 12.5639 5.23245 10.2037 5.23245ZM10.2037 12.2684C8.67853 12.2684 7.43165 11.0252 7.43165 9.49631C7.43165 7.96741 8.67482 6.72424 10.2037 6.72424C11.7326 6.72424 12.9758 7.96741 12.9758 9.49631C12.9758 11.0252 11.7289 12.2684 10.2037 12.2684ZM15.6365 5.05803C15.6365 5.61096 15.1912 6.05256 14.642 6.05256C14.0891 6.05256 13.6475 5.60725 13.6475 5.05803C13.6475 4.50881 14.0928 4.0635 14.642 4.0635C15.1912 4.0635 15.6365 4.50881 15.6365 5.05803ZM18.4606 6.06741C18.3975 4.73518 18.0932 3.5551 17.1172 2.58284C16.1449 1.61057 14.9649 1.30627 13.6326 1.23948C12.2596 1.16155 8.14415 1.16155 6.7711 1.23948C5.44259 1.30256 4.26251 1.60686 3.28653 2.57913C2.31056 3.55139 2.00997 4.73147 1.94317 6.0637C1.86525 7.43674 1.86525 11.5522 1.94317 12.9252C2.00626 14.2574 2.31056 15.4375 3.28653 16.4098C4.26251 17.3821 5.43888 17.6864 6.7711 17.7531C8.14415 17.8311 12.2596 17.8311 13.6326 17.7531C14.9649 17.6901 16.1449 17.3858 17.1172 16.4098C18.0895 15.4375 18.3938 14.2574 18.4606 12.9252C18.5385 11.5522 18.5385 7.44045 18.4606 6.06741ZM16.6867 14.3985C16.3973 15.1258 15.8369 15.6862 15.1059 15.9793C14.0111 16.4135 11.4135 16.3133 10.2037 16.3133C8.99396 16.3133 6.39259 16.4098 5.30157 15.9793C4.57423 15.6899 4.01388 15.1295 3.72071 14.3985C3.28653 13.3037 3.38673 10.7061 3.38673 9.49631C3.38673 8.28655 3.29025 5.68518 3.72071 4.59417C4.01017 3.86682 4.57052 3.30647 5.30157 3.01331C6.3963 2.57913 8.99396 2.67932 10.2037 2.67932C11.4135 2.67932 14.0149 2.58284 15.1059 3.01331C15.8332 3.30276 16.3936 3.86311 16.6867 4.59417C17.1209 5.68889 17.0207 8.28655 17.0207 9.49631C17.0207 10.7061 17.1209 13.3074 16.6867 14.3985Z" fill="white"/>
</svg>
