<svg width="41" height="41" viewBox="0 0 41 41" fill="none" xmlns="http://www.w3.org/2000/svg">
<g clip-path="url(#clip0_6_178)">
<path d="M13.7976 30.4316V36.1525C13.7976 36.9111 14.099 37.6388 14.6354 38.1752C15.1718 38.7115 15.8994 39.013 16.6581 39.013H36.6813C37.44 39.013 38.1676 38.7115 38.704 38.1752C39.2404 37.6388 39.5418 36.9111 39.5418 36.1525V4.68737C39.5418 3.92872 39.2404 3.20116 38.704 2.66472C38.1676 2.12827 37.44 1.8269 36.6813 1.8269H16.6581C15.8994 1.8269 15.1718 2.12827 14.6354 2.66472C14.099 3.20116 13.7976 3.92872 13.7976 4.68737V10.4083" stroke="#F4F4F4" stroke-width="3.87547" stroke-linecap="round" stroke-linejoin="round"/>
<path d="M2.35572 20.4199H25.2395" stroke="#F4F4F4" stroke-width="3.87547" stroke-linecap="round" stroke-linejoin="round"/>
<path d="M19.5185 14.6987L25.2395 20.4197L19.5185 26.1406" stroke="#F4F4F4" stroke-width="3.87547" stroke-linecap="round" stroke-linejoin="round"/>
</g>
<defs>
<clipPath id="clip0_6_178">
<rect width="40.0466" height="40.0466" fill="white" transform="matrix(-1 0 0 1 40.972 0.396484)"/>
</clipPath>
</defs>
</svg>
