<svg width="57" height="52" viewBox="0 0 57 52" fill="none" xmlns="http://www.w3.org/2000/svg">
<path d="M2.31802 1.20291C2.31802 0.70414 2.72236 0.299805 3.22113 0.299805H6.30947C6.52323 0.299805 6.69651 0.473091 6.69651 0.686851V0.977797C6.69651 1.19156 6.52323 1.36484 6.30947 1.36484H2.31802V1.20291Z" fill="white"/>
<path d="M2.31796 2.9624H5.80892C6.10302 2.9624 6.34144 3.20082 6.34144 3.49492C6.34144 3.78902 6.10302 4.02744 5.80892 4.02744H2.31796V2.9624Z" fill="white"/>
<path d="M2.673 5.74341H6.16396C6.45806 5.74341 6.69648 5.98183 6.69648 6.27593C6.69648 6.57003 6.45806 6.80845 6.16396 6.80845H3.4471C3.01958 6.80845 2.673 6.46187 2.673 6.03435V5.74341Z" fill="white"/>
<path d="M2.31796 1.36475H3.50134V6.80827H3.09205C2.66454 6.80827 2.31796 6.4617 2.31796 6.03418V1.36475Z" fill="white"/>
<path d="M7.90944 0.920898H8.38857C8.74484 0.920898 9.03365 1.20971 9.03365 1.56598V2.17824H9.59086C10.0184 2.17824 10.3649 2.52481 10.3649 2.95233V3.11014H9.03365V5.21064C9.03365 5.55375 9.31181 5.83191 9.65492 5.83191H9.84889C10.1339 5.83191 10.3649 6.06296 10.3649 6.34797V6.80819H9.35908C8.55847 6.80819 7.90944 6.15917 7.90944 5.35856V3.11014H7.74507C7.46005 3.11014 7.229 2.8791 7.229 2.59408V2.17824H7.90944V0.920898Z" fill="white"/>
<path d="M10.962 3.78467H15.4131V4.17171C15.4131 4.4211 15.2109 4.62327 14.9615 4.62327H10.962V3.78467Z" fill="white"/>
<path d="M11.2201 3.01075C11.6224 2.32689 12.3436 1.89332 13.1362 1.85885L13.1601 1.85781C13.2857 1.85236 13.4115 1.85825 13.5359 1.87542L13.5909 1.88299C14.5495 2.01522 15.2971 2.77958 15.408 3.74093L15.4131 3.78484V3.91385L14.1874 3.78484L14.1229 3.4623C14.042 3.21964 13.8481 3.03152 13.6031 2.95802L13.47 2.91809C13.3901 2.89411 13.3061 2.88676 13.2232 2.89652C12.6695 2.96166 12.2522 3.4309 12.2522 3.9884V4.17189L12.2981 4.81456C12.3102 4.98417 12.3736 5.14609 12.4798 5.27887C12.5427 5.35751 12.6174 5.42596 12.7012 5.48182L12.8161 5.55844C12.9111 5.62177 13.0227 5.65556 13.1369 5.65556H13.4226C13.6183 5.65556 13.8011 5.55775 13.9097 5.3949L13.9325 5.36068C13.973 5.29993 14.0001 5.23128 14.0121 5.15926L14.0584 4.88147H15.3486L15.2938 5.23721C15.2454 5.55239 15.1069 5.84686 14.895 6.08521C14.7683 6.22776 14.6179 6.34733 14.4505 6.43866L14.2558 6.54481C14.0831 6.63902 13.8926 6.69612 13.6966 6.71246L13.2198 6.75219L13.1075 6.74857C12.0173 6.7134 11.1111 5.89755 10.9621 4.81696L10.9404 4.64362C10.8704 4.08365 10.9677 3.51549 11.2201 3.01075Z" fill="white"/>
<path d="M16.2517 3.01075C16.6539 2.32689 17.3752 1.89332 18.1678 1.85885L18.1917 1.85781C18.3173 1.85236 18.443 1.85825 18.5675 1.87542L18.8812 1.91868C19.6819 2.02912 20.2989 2.68028 20.366 3.48581C20.3736 3.57733 20.3014 3.65582 20.2096 3.65582H19.1545L19.1335 3.56106C19.0668 3.26107 18.8432 3.02056 18.5488 2.93226L18.5016 2.91809C18.4217 2.89411 18.3377 2.88676 18.2548 2.89652C17.7011 2.96166 17.2838 3.4309 17.2838 3.9884V4.17189L17.3297 4.81456C17.3418 4.98417 17.4052 5.14609 17.5114 5.27887C17.5743 5.35751 17.649 5.42596 17.7328 5.48182L17.8477 5.55844C17.9427 5.62177 18.0543 5.65556 18.1685 5.65556H18.4542C18.6499 5.65556 18.8327 5.55775 18.9412 5.3949L19.0155 5.28355C19.0221 5.27364 19.0265 5.26244 19.0285 5.2507C19.064 5.03763 19.2483 4.88147 19.4643 4.88147H20.3802L20.3254 5.23721C20.2769 5.55239 20.1384 5.84686 19.9266 6.08521C19.7999 6.22776 19.6495 6.34733 19.482 6.43866L19.2874 6.54481C19.1147 6.63902 18.9242 6.69612 18.7282 6.71246L18.2514 6.75219L18.1391 6.74857C17.0489 6.7134 16.1427 5.89755 15.9936 4.81696L15.972 4.64362C15.902 4.08365 15.9993 3.51549 16.2517 3.01075Z" fill="white"/>
<circle cx="16.9363" cy="22.7896" r="1.32966" fill="white"/>
<path d="M18.6607 19.1305C18.9549 18.8364 20.6951 15.2338 21.7954 12.9059C21.9423 12.5952 22.3827 12.5908 22.5365 12.8983L28.1203 24.0659" stroke="white" stroke-width="2.58031" stroke-linecap="round"/>
<path d="M18.7837 47.7949C17.902 48.6766 17.902 50.1061 18.7837 50.9879C19.6654 51.8696 21.095 51.8696 21.9767 50.9879L18.7837 47.7949ZM21.9767 50.9879C22.2165 50.7481 22.3591 50.4957 22.3904 50.4416C22.4521 50.3352 22.5058 50.2292 22.5484 50.1414C22.6351 49.9628 22.7286 49.7498 22.8227 49.5263C23.0134 49.0732 23.2512 48.4702 23.5175 47.7768C24.0519 46.3858 24.7327 44.5485 25.4379 42.6462C26.8759 38.7676 28.3727 34.7407 29.0688 33.2556L24.9802 31.3391C24.1807 33.0446 22.5947 37.3254 21.204 41.0765C20.495 42.9891 19.825 44.7971 19.3023 46.1576C19.0402 46.84 18.823 47.3892 18.6608 47.7744C18.5785 47.9699 18.5211 48.0976 18.4861 48.1698C18.4678 48.2074 18.468 48.2043 18.4838 48.177C18.492 48.1629 18.5143 48.125 18.5496 48.074C18.5773 48.0341 18.6562 47.9224 18.7837 47.7949L21.9767 50.9879Z" fill="url(#paint0_linear_6_242)"/>
<path d="M26.96 32.4263L33.3897 46.0116C34.1188 47.5522 32.9951 49.3273 31.2906 49.3273H28.5284" stroke="url(#paint1_linear_6_242)" stroke-width="4.51554" stroke-linecap="round"/>
<path d="M12.9137 38.0085C12.9137 41.3127 14.1289 48.9593 8.57373 49.3369C3.01854 49.7145 2.20841 45.7181 2.49774 43.6727" stroke="url(#paint2_linear_6_242)" stroke-width="4.51554" stroke-linecap="round"/>
<circle cx="12.8973" cy="32.0391" r="2.96735" fill="#F4F4F4"/>
<path d="M39.4744 48.56V31.9591C39.4744 31.5531 40.0199 31.4209 40.2058 31.7818L44.8295 40.7571C45.3752 41.8165 46.8627 41.8884 47.5082 40.8868L53.8082 31.1096" stroke="url(#paint3_linear_6_242)" stroke-width="4.51554" stroke-linecap="round"/>
<path d="M53.8728 31.4968V45.6885C53.8728 47.6836 52.2555 49.3009 50.2604 49.3009V49.3009" stroke="url(#paint4_linear_6_242)" stroke-width="4.51554" stroke-linecap="round"/>
<path d="M53.8728 31.4968V45.6885C53.8728 47.6836 52.2555 49.3009 50.2604 49.3009V49.3009" stroke="url(#paint5_linear_6_242)" stroke-width="4.51554" stroke-linecap="round"/>
<path d="M32.85 24.0769V11.6855C32.85 11.3824 33.2571 11.2837 33.3959 11.5532L36.8288 18.217C37.2402 19.0155 38.3652 19.0603 38.8388 18.2971L43.0417 11.5231C43.1102 11.4128 43.2804 11.4613 43.2804 11.5911V24.0769" stroke="white" stroke-width="2.58031" stroke-linecap="round"/>
<path d="M55.4618 11.9126H47.4959" stroke="white" stroke-width="2.58031" stroke-linecap="round"/>
<path d="M47.4738 19.2665L47.4959 11.9126" stroke="white" stroke-width="2.58031" stroke-linecap="round"/>
<path d="M55.2143 23.0078L47.4734 23.0078" stroke="white" stroke-width="2.58031" stroke-linecap="round"/>
<path d="M53.2792 17.6938H47.4958" stroke="white" stroke-width="2.58031" stroke-linecap="round"/>
<path d="M13.8133 22.8536L13.643 23.1517L13.3889 23.4304C12.2417 24.6208 10.7375 25.4046 9.10447 25.6629C7.47059 25.9214 5.79701 25.6396 4.33783 24.8604C2.87866 24.0812 1.71359 22.8472 1.01953 21.3456C0.325467 19.8441 0.140323 18.1571 0.492209 16.5407C0.844096 14.9244 1.71379 13.4671 2.96924 12.3899C4.2247 11.3128 5.79733 10.6748 7.44837 10.5727C9.08826 10.4713 10.2138 10.8948 11.603 11.8161C12.5934 12.473 13.211 13.3929 13.6212 14.5355C13.8302 15.1179 13.4005 15.7359 12.7441 15.805C12.2294 15.8592 11.7719 15.5474 11.6885 15.0675C11.6474 14.8305 11.607 14.605 11.5094 14.3771C11.4102 14.1456 11.2565 13.9211 11.0006 13.6677C10.9671 13.6345 10.9298 13.6045 10.8904 13.5789C9.91144 12.9428 8.60031 12.5244 7.42448 12.5971C6.22036 12.6715 5.24742 13.2551 4.3627 14.0141C3.46081 14.7879 2.83603 15.8348 2.58324 16.996C2.33046 18.1571 2.46346 19.369 2.96206 20.4477C3.46066 21.5264 4.29763 22.4129 5.34587 22.9727C6.39412 23.5324 7.59639 23.7348 8.77014 23.5492C9.91521 23.3681 11.036 23.0337 11.8755 22.1619L11.9297 22.1057V22.0277V19.6022C11.9297 19.0821 12.3513 18.6604 12.8715 18.6604C13.3916 18.6604 13.8133 19.0821 13.8133 19.6022V22.8536Z" fill="white" stroke="white" stroke-width="0.387046"/>
<path d="M12.6392 19.5247H11.6071" stroke="white" stroke-width="2.19326" stroke-linecap="round"/>
<defs>
<linearGradient id="paint0_linear_6_242" x1="23.7023" y1="32.2974" x2="23.7023" y2="49.3914" gradientUnits="userSpaceOnUse">
<stop stop-color="white"/>
<stop offset="1" stop-color="#B4B4B4"/>
</linearGradient>
<linearGradient id="paint1_linear_6_242" x1="30.9595" y1="32.4263" x2="30.9595" y2="49.3273" gradientUnits="userSpaceOnUse">
<stop stop-color="white"/>
<stop offset="1" stop-color="#B4B4B4"/>
</linearGradient>
<linearGradient id="paint2_linear_6_242" x1="7.73665" y1="38.0085" x2="7.73665" y2="49.3619" gradientUnits="userSpaceOnUse">
<stop stop-color="white"/>
<stop offset="1" stop-color="#B4B4B4"/>
</linearGradient>
<linearGradient id="paint3_linear_6_242" x1="46.6413" y1="30.3621" x2="46.6413" y2="48.56" gradientUnits="userSpaceOnUse">
<stop stop-color="white"/>
<stop offset="1" stop-color="#B4B4B4"/>
</linearGradient>
<linearGradient id="paint4_linear_6_242" x1="52.0666" y1="31.4968" x2="52.0666" y2="49.3009" gradientUnits="userSpaceOnUse">
<stop stop-color="white"/>
<stop offset="1" stop-color="#B4B4B4"/>
</linearGradient>
<linearGradient id="paint5_linear_6_242" x1="52.0666" y1="31.4968" x2="52.0666" y2="49.3009" gradientUnits="userSpaceOnUse">
<stop stop-color="white"/>
<stop offset="1" stop-color="#B4B4B4"/>
</linearGradient>
</defs>
</svg>
