<svg width="80" height="73" viewBox="0 0 80 73" fill="none" xmlns="http://www.w3.org/2000/svg">
<path d="M3.55212 1.8759C3.55212 1.18181 4.1148 0.619141 4.80889 0.619141H9.10661C9.40408 0.619141 9.64522 0.860286 9.64522 1.15775V1.56263C9.64522 1.8601 9.40408 2.10125 9.10661 2.10125H3.55212V1.8759Z" fill="white"/>
<path d="M3.55211 4.32446H8.41012C8.81939 4.32446 9.15117 4.65624 9.15117 5.06552C9.15117 5.47479 8.81939 5.80657 8.41012 5.80657H3.55211V4.32446Z" fill="white"/>
<path d="M4.04614 8.19409H8.90415C9.31343 8.19409 9.64521 8.52587 9.64521 8.93514C9.64521 9.34442 9.31343 9.6762 8.90415 9.6762H5.12337C4.52843 9.6762 4.04614 9.19391 4.04614 8.59897V8.19409Z" fill="white"/>
<path d="M3.55211 2.10107H5.19889V9.67628H4.62933C4.0344 9.67628 3.55211 9.19399 3.55211 8.59905V2.10107Z" fill="white"/>
<path d="M11.3332 1.4834H11.9999C12.4957 1.4834 12.8976 1.88531 12.8976 2.38109V3.23311H13.673C14.2679 3.23311 14.7502 3.7154 14.7502 4.31033V4.52995H12.8976V7.45299C12.8976 7.93048 13.2847 8.31755 13.7622 8.31755H14.0321C14.4287 8.31755 14.7502 8.63908 14.7502 9.0357V9.67615H13.3505C12.2363 9.67615 11.3332 8.77297 11.3332 7.65884V4.52995H11.1044C10.7078 4.52995 10.3863 4.20842 10.3863 3.8118V3.23311H11.3332V1.4834Z" fill="white"/>
<path d="M15.5811 5.46875H21.7752V6.00736C21.7752 6.35441 21.4938 6.63574 21.1468 6.63574H15.5811V5.46875Z" fill="white"/>
<path d="M15.9402 4.39147C16.5 3.43982 17.5037 2.83646 18.6068 2.7885L18.64 2.78705C18.8147 2.77946 18.9898 2.78765 19.163 2.81155L19.2394 2.82209C20.5735 3.0061 21.6138 4.06978 21.7682 5.4076L21.7752 5.4687V5.64824L20.0696 5.4687L19.9798 5.01985C19.8673 4.68217 19.5974 4.42038 19.2565 4.3181L19.0713 4.26253C18.96 4.22916 18.8431 4.21894 18.7277 4.23251C17.9572 4.32316 17.3765 4.97616 17.3765 5.75198V6.00731L17.4404 6.90166C17.4573 7.13769 17.5455 7.36302 17.6933 7.54779C17.7808 7.65722 17.8847 7.75248 18.0013 7.83022L18.1613 7.93683C18.2935 8.02496 18.4488 8.07199 18.6077 8.07199H19.0053C19.2776 8.07199 19.532 7.93587 19.683 7.70925L19.7148 7.66163C19.7712 7.57709 19.8089 7.48156 19.8256 7.38134L19.8901 6.99477H21.6854L21.6093 7.48981C21.5418 7.92843 21.3491 8.33821 21.0542 8.66989C20.8779 8.86826 20.6686 9.03466 20.4356 9.16175L20.1648 9.30947C19.9244 9.44057 19.6594 9.52004 19.3865 9.54277L18.7231 9.59806L18.5668 9.59302C17.0496 9.54408 15.7886 8.40874 15.5812 6.905L15.551 6.66377C15.4536 5.88452 15.589 5.09388 15.9402 4.39147Z" fill="white"/>
<path d="M22.9422 4.39147C23.502 3.43982 24.5057 2.83646 25.6087 2.7885L25.6419 2.78705C25.8166 2.77946 25.9917 2.78765 26.1649 2.81155L26.6014 2.87175C27.7157 3.02545 28.5742 3.9316 28.6676 5.05257C28.6783 5.17993 28.5778 5.28916 28.45 5.28916H26.9818L26.9524 5.15728C26.8597 4.73983 26.5485 4.40513 26.1389 4.28224L26.0732 4.26253C25.9619 4.22916 25.845 4.21894 25.7296 4.23251C24.9591 4.32316 24.3785 4.97616 24.3785 5.75198V6.00731L24.4423 6.90166C24.4592 7.13769 24.5474 7.36302 24.6952 7.54779C24.7827 7.65722 24.8867 7.75248 25.0033 7.83022L25.1632 7.93683C25.2954 8.02496 25.4507 8.07199 25.6096 8.07199H26.0072C26.2795 8.07199 26.5339 7.93587 26.685 7.70925L26.7883 7.5543C26.7975 7.54051 26.8036 7.52493 26.8064 7.50858C26.8558 7.21208 27.1123 6.99477 27.4129 6.99477H28.6874L28.6112 7.48981C28.5437 7.92843 28.351 8.33821 28.0562 8.66989C27.8798 8.86826 27.6705 9.03466 27.4375 9.16175L27.1667 9.30947C26.9264 9.44057 26.6613 9.52004 26.3885 9.54277L25.725 9.59806L25.5687 9.59302C24.0515 9.54408 22.7905 8.40874 22.5831 6.905L22.5529 6.66377C22.4555 5.88452 22.591 5.09388 22.9422 4.39147Z" fill="white"/>
<circle cx="23.8949" cy="31.9158" r="1.85035" fill="white"/>
<path d="M26.2946 26.8241C26.7039 26.4148 29.1255 21.4014 30.6568 18.1619C30.8612 17.7295 31.4741 17.7235 31.688 18.1513L39.4584 33.6922" stroke="white" stroke-width="3.59075" stroke-linecap="round"/>
<path d="M26.4657 66.7131C25.2388 67.9401 25.2388 69.9294 26.4657 71.1564C27.6927 72.3834 29.6821 72.3834 30.9091 71.1564L26.4657 66.7131ZM30.9091 71.1564C31.2428 70.8227 31.4412 70.4715 31.4848 70.3962C31.5706 70.2482 31.6454 70.1006 31.7047 69.9785C31.8254 69.7299 31.9554 69.4336 32.0864 69.1224C32.3517 68.492 32.6827 67.6528 33.0534 66.688C33.797 64.7522 34.7443 62.1954 35.7258 59.5481C37.7268 54.1507 39.8097 48.5469 40.7785 46.4803L35.0887 43.8132C33.9762 46.1866 31.7691 52.1438 29.8338 57.3638C28.8471 60.0253 27.9148 62.5414 27.1875 64.4346C26.8227 65.3842 26.5204 66.1485 26.2947 66.6845C26.1802 66.9566 26.1003 67.1344 26.0516 67.2347C26.0261 67.2871 26.0264 67.2828 26.0484 67.2448C26.0598 67.2252 26.0908 67.1724 26.14 67.1015C26.1785 67.0459 26.2884 66.8904 26.4657 66.7131L30.9091 71.1564Z" fill="white"/>
<path d="M37.8438 45.3262L46.7914 64.2314C47.8061 66.3754 46.2423 68.8456 43.8703 68.8456H40.0264" stroke="white" stroke-width="6.28381" stroke-linecap="round"/>
<path d="M18.2971 53.0945C18.2971 57.6925 19.9882 68.3335 12.2576 68.859C4.52702 69.3845 3.39964 63.8231 3.80227 60.9767" stroke="white" stroke-width="6.28381" stroke-linecap="round"/>
<circle cx="18.2742" cy="44.7876" r="3.61319" fill="white" stroke="white" stroke-width="1.03234"/>
<path d="M55.259 67.7776V44.6759C55.259 44.1108 56.018 43.9268 56.2768 44.4291L62.711 56.9191C63.4704 58.3933 65.5405 58.4935 66.4387 57.0995L75.2059 43.4937" stroke="white" stroke-width="6.28381" stroke-linecap="round"/>
<path d="M75.2957 44.032V63.7811C75.2957 66.5575 73.045 68.8082 70.2686 68.8082V68.8082" stroke="white" stroke-width="6.28381" stroke-linecap="round"/>
<path d="M75.2957 44.032V63.7811C75.2957 66.5575 73.045 68.8082 70.2686 68.8082V68.8082" stroke="white" stroke-width="6.28381" stroke-linecap="round"/>
<path d="M46.0404 33.7075V16.4636C46.0404 16.0418 46.6069 15.9045 46.8001 16.2794L51.5773 25.5528C52.1497 26.6641 53.7154 26.7264 54.3744 25.6643L60.2232 16.2376C60.3185 16.0841 60.5553 16.1516 60.5553 16.3323V33.7075" stroke="white" stroke-width="3.59075" stroke-linecap="round"/>
<path d="M77.507 16.7793H66.4216" stroke="white" stroke-width="3.59075" stroke-linecap="round"/>
<path d="M66.3908 27.0129L66.4216 16.7793" stroke="white" stroke-width="3.59075" stroke-linecap="round"/>
<path d="M77.1625 32.2197H66.3903" stroke="white" stroke-width="3.59075" stroke-linecap="round"/>
<path d="M74.4696 24.8247H66.4215" stroke="white" stroke-width="3.59075" stroke-linecap="round"/>
<path d="M16.8524 31.0423L16.9277 30.9641V30.8555V27.4802C16.9277 26.7563 17.5145 26.1696 18.2383 26.1696C18.9621 26.1696 19.5489 26.7563 19.5489 27.4802V32.0048L19.3119 32.4196L18.9584 32.8075C17.3619 34.4641 15.2686 35.5548 12.9962 35.9143C10.7225 36.2739 8.3935 35.8818 6.36291 34.7975C4.33233 33.7131 2.71102 31.9958 1.74516 29.9063C0.779309 27.8168 0.521664 25.4691 1.01135 23.2199C1.50103 20.9706 2.7113 18.9425 4.45838 17.4436C6.20547 15.9447 8.39395 15.0568 10.6915 14.9148C12.9736 14.7737 14.5399 15.363 16.4731 16.6451C17.8513 17.5591 18.7108 18.8394 19.2816 20.4294C19.5725 21.2399 18.9744 22.0998 18.061 22.196C17.3448 22.2714 16.7081 21.8375 16.5921 21.1696C16.5349 20.8399 16.4787 20.5261 16.3429 20.209C16.2048 19.8867 15.9909 19.5743 15.6348 19.2217C15.5882 19.1755 15.5363 19.1338 15.4815 19.0982C14.1191 18.213 12.2946 17.6306 10.6583 17.7318C8.98263 17.8354 7.62869 18.6475 6.39752 19.7038C5.14244 20.7806 4.27301 22.2375 3.92123 23.8534C3.56945 25.4692 3.75454 27.1557 4.44839 28.6568C5.14224 30.1579 6.30696 31.3915 7.7657 32.1705C9.22443 32.9495 10.8975 33.2312 12.5309 32.9728C14.1244 32.7208 15.6841 32.2554 16.8524 31.0423Z" fill="white" stroke="white" stroke-width="0.538613"/>
<path d="M17.9151 27.3723H16.4788" stroke="white" stroke-width="3.05214" stroke-linecap="round"/>
</svg>
