<svg width="19" height="19" viewBox="0 0 19 19" fill="none" xmlns="http://www.w3.org/2000/svg">
<path d="M17.8125 7.78963C16.1788 7.79354 14.5851 7.28403 13.2566 6.33309V12.9653C13.2561 14.1936 12.8807 15.3926 12.1804 16.4018C11.4802 17.411 10.4885 18.1824 9.33805 18.6128C8.18757 19.0432 6.93311 19.1121 5.74241 18.8103C4.55171 18.5085 3.48152 17.8504 2.67494 16.9239C1.86837 15.9975 1.36386 14.8469 1.22886 13.626C1.09387 12.4051 1.33483 11.172 1.91953 10.0918C2.50423 9.01149 3.40479 8.13548 4.5008 7.58084C5.5968 7.02621 6.83602 6.8194 8.05274 6.98807V10.3238C7.49596 10.1487 6.89809 10.154 6.34449 10.3389C5.7909 10.5238 5.30989 10.879 4.97017 11.3536C4.63044 11.8282 4.44937 12.398 4.4528 12.9816C4.45624 13.5653 4.64402 14.1329 4.98931 14.6035C5.3346 15.0741 5.81976 15.4235 6.37549 15.6019C6.93123 15.7803 7.52912 15.7786 8.0838 15.5969C8.63847 15.4152 9.12155 15.0629 9.46405 14.5903C9.80656 14.1177 9.99097 13.5489 9.99096 12.9653V0H13.2566C13.2543 0.275775 13.2774 0.551173 13.3256 0.822715C13.4391 1.42889 13.675 2.00554 14.019 2.5174C14.363 3.02926 14.8078 3.46557 15.3262 3.79963C16.0637 4.28728 16.9284 4.5472 17.8125 4.54701V7.78963Z" fill="white"/>
</svg>
