<svg width="19" height="19" viewBox="0 0 19 19" fill="none" xmlns="http://www.w3.org/2000/svg">
<path d="M18.131 5.14853C17.9238 4.36841 17.3134 3.75401 16.5383 3.5455C15.1334 3.16663 9.5 3.16663 9.5 3.16663C9.5 3.16663 3.86663 3.16663 2.46172 3.5455C1.68665 3.75404 1.07621 4.36841 0.869022 5.14853C0.492584 6.56255 0.492584 9.51276 0.492584 9.51276C0.492584 9.51276 0.492584 12.463 0.869022 13.877C1.07621 14.6571 1.68665 15.2459 2.46172 15.4544C3.86663 15.8333 9.5 15.8333 9.5 15.8333C9.5 15.8333 15.1334 15.8333 16.5383 15.4544C17.3134 15.2459 17.9238 14.6571 18.131 13.877C18.5074 12.463 18.5074 9.51276 18.5074 9.51276C18.5074 9.51276 18.5074 6.56255 18.131 5.14853ZM7.65756 12.1913V6.83419L12.366 9.51282L7.65756 12.1913Z" fill="white"/>
</svg>
